<svg viewBox="0 0 400 400" xmlns="http://www.w3.org/2000/svg">
  <rect width="400" height="400" rx="72" fill="#F8F7F2"/>
  <g stroke="#B8CDD8" stroke-width="1" opacity="0.7">
    <line x1="40" y1="0" x2="40" y2="400"/>
    <line x1="80" y1="0" x2="80" y2="400"/>
    <line x1="120" y1="0" x2="120" y2="400"/>
    <line x1="160" y1="0" x2="160" y2="400"/>
    <line x1="200" y1="0" x2="200" y2="400"/>
    <line x1="240" y1="0" x2="240" y2="400"/>
    <line x1="280" y1="0" x2="280" y2="400"/>
    <line x1="320" y1="0" x2="320" y2="400"/>
    <line x1="360" y1="0" x2="360" y2="400"/>
    <line x1="0" y1="40" x2="400" y2="40"/>
    <line x1="0" y1="80" x2="400" y2="80"/>
    <line x1="0" y1="120" x2="400" y2="120"/>
    <line x1="0" y1="160" x2="400" y2="160"/>
    <line x1="0" y1="200" x2="400" y2="200"/>
    <line x1="0" y1="240" x2="400" y2="240"/>
    <line x1="0" y1="280" x2="400" y2="280"/>
    <line x1="0" y1="320" x2="400" y2="320"/>
    <line x1="0" y1="360" x2="400" y2="360"/>
  </g>
  <g stroke="#A0B8C8" stroke-width="1.5" opacity="0.5">
    <line x1="80" y1="0" x2="80" y2="400"/>
    <line x1="160" y1="0" x2="160" y2="400"/>
    <line x1="240" y1="0" x2="240" y2="400"/>
    <line x1="320" y1="0" x2="320" y2="400"/>
    <line x1="0" y1="80" x2="400" y2="80"/>
    <line x1="0" y1="160" x2="400" y2="160"/>
    <line x1="0" y1="240" x2="400" y2="240"/>
    <line x1="0" y1="320" x2="400" y2="320"/>
  </g>
  <rect x="80" y="155" width="230" height="28" fill="#1E2235"/>
  <rect x="282" y="155" width="28" height="210" fill="#1E2235"/>
  <rect x="80" y="155" width="6" height="28" fill="#1E2235"/>
  <rect x="282" y="359" width="28" height="6" fill="#1E2235"/>
  <line x1="77" y1="155" x2="77" y2="183" stroke="#1E2235" stroke-width="4" stroke-linecap="round"/>
  <line x1="282" y1="362" x2="310" y2="362" stroke="#1E2235" stroke-width="4" stroke-linecap="round"/>
  <line x1="110" y1="210" x2="255" y2="210" stroke="#5A7A9A" stroke-width="1.5" stroke-dasharray="4 3" opacity="0.6"/>
  <line x1="110" y1="205" x2="110" y2="215" stroke="#5A7A9A" stroke-width="1.5" opacity="0.6"/>
  <line x1="255" y1="205" x2="255" y2="215" stroke="#5A7A9A" stroke-width="1.5" opacity="0.6"/>
</svg>
